<!-- Created with Inkscape (http://www.inkscape.org/) -->
<svg width="210mm" height="297mm" version="1.1" viewBox="0 0 210 297" xmlns="http://www.w3.org/2000/svg" xmlns:xlink="http://www.w3.org/1999/xlink">
 <defs>
  <radialGradient id="radialGradient3997" cx="124.19" cy="89.769" r="12.533" gradientTransform="matrix(1 0 0 1.0762 0 -6.8369)" gradientUnits="userSpaceOnUse">
   <stop stop-color="#fff" offset="0"/>
   <stop stop-color="#fff" stop-opacity="0" offset="1"/>
  </radialGradient>
 </defs>
 <g fill-rule="evenodd" opacity=".49794" stroke-width="0" style="paint-order:fill markers stroke">
  <path d="m93.725 78.239 46.233-8.5165 0.58632 38.127-46.476-7.3343z" points="139.95777,69.722379 140.54409,107.84916 94.067675,100.51482 93.725114,78.238897 " fill="#e9e9ff" style="paint-order:fill markers stroke"/>
  <path d="m59.776 74.112 0.49192 31.988 33.8-5.585-0.34256-22.276z" points="60.267686,106.09982 94.067675,100.51482 93.725114,78.238897 59.775771,74.111754 " fill="#353564" style="paint-order:fill markers stroke"/>
  <path d="m60.268 106.1 46.687 23.543 33.59-21.793-46.476-7.3343z" points="106.95444,129.64254 140.54409,107.84916 94.067675,100.51482 60.267686,106.09982 " fill="#afafde" style="paint-order:fill markers stroke"/>
  <path d="m59.776 74.112 45.958-23.844 34.224 19.455-46.233 8.5165z" points="105.7338,50.267546 139.95777,69.722379 93.725114,78.238897 59.775771,74.111754 " fill="#4d4d9f" style="paint-order:fill markers stroke"/>
  <path d="m105.73 50.268 1.2206 79.375 33.59-21.793-0.58632-38.127z" points="106.95444,129.64254 140.54409,107.84916 139.95777,69.722379 105.7338,50.267546 " fill="#d7d7ff" style="paint-order:fill markers stroke"/>
 </g>
 <g fill="#2b0000">
  <path d="m83.57 79.21c-0.88138 0.03683-1.6729 0.5172-1.9662 1.2759l-4.4017 11.383-7.1929-10.606c-0.64064-0.94466-2.0271-1.2888-3.1087-0.7717l-0.97382 0.46563c-1.0816 0.51714-1.4365 1.6939-0.79589 2.6386l10.511 15.5c0.55943 0.82492 1.6875 1.1918 2.6847 0.92726 0.99014 0.0645 1.923-0.4334 2.2472-1.2719l0.1186-0.30672c0.02328-0.05216 0.04371-0.10522 0.06154-0.15902l6.2378-16.132c0.39115-1.0115-0.25568-2.1235-1.4503-2.4931l-1.0756-0.33274c-0.29866-0.092402-0.60244-0.12942-0.89624-0.11714z" opacity=".59259" stroke="#fff" stroke-dasharray="0.051219, 0.051219" stroke-width=".051219" style="paint-order:markers stroke fill"/>
  <path d="m132.84 76.325c-0.9882 0.09822-1.8957 0.75474-2.2581 1.7358l-5.437 14.721-7.5761-13.058c-0.67474-1.163-2.2113-1.5195-3.4451-0.79933l-1.1109 0.64843c-1.2338 0.72017-1.6839 2.2362-1.0091 3.3992l11.072 19.082c0.58922 1.0156 1.8355 1.416 2.9636 1.0217 1.1054 0.0243 2.1719-0.66281 2.5724-1.7473l0.14653-0.39663c0.0284-0.0677 0.0536-0.13627 0.076-0.20567l7.7051-20.862c0.48315-1.3081-0.19164-2.6832-1.5117-3.0833l-1.1891-0.36009c-0.33016-0.09999-0.66854-0.12932-0.99796-0.09659z" opacity=".59259" stroke="url(#radialGradient3997)" stroke-dasharray="0.061, 0.061" stroke-width=".061" style="paint-order:markers stroke fill"/>
  <path d="m97.807 80.608a4.0251 4.0959 0 0 0-0.93256 0.1142h-1.263v0.55178a4.0251 4.0959 0 0 0-0.03643 0.02302v6.8139a4.0251 4.0959 0 0 0 0.03643 0.02303v0.51378h1.1152a4.0251 4.0959 0 0 0 1.0804 0.1522 4.0251 4.0959 0 0 0 4.0251-4.0959 4.0251 4.0959 0 0 0-4.0251-4.096zm-0.37677 1.1349c0.60783-0.0068 1.2178 0.189 1.7123 0.55698 0.74131 0.55164 1.203 1.4916 1.1855 2.4387-9e-3 0.47355-0.13196 0.94458-0.35661 1.3567-0.22465 0.41217-0.5504 0.76455-0.93868 1.0128-0.57254 0.36608-1.2799 0.49779-1.9392 0.36108v-5.7015c0.11167-0.01533 0.22415-0.02353 0.33671-0.02482z" opacity=".77366" stroke="#fff" stroke-dasharray="0.0378277, 0.0378277" stroke-width=".037828"/>
 </g>
 <path d="m100.49 91.81v3.57e-4h-1.4177v7.727h1.4173v9e-4h4.3365v-1.3078h-4.3334v-2.1728h2.4542v-1.0698h-2.4542v-2.0523h4.3327v-1.1256z" fill="#2b0000" opacity=".77366" stroke-width="0" style="paint-order:fill markers stroke"/>
</svg>
